<?xml version="1.0" encoding="utf-8"?>
<!-- Svg Vector Icons : http://www.onlinewebfonts.com/icon -->
<!DOCTYPE svg PUBLIC "-//W3C//DTD SVG 1.1//EN" "http://www.w3.org/Graphics/SVG/1.1/DTD/svg11.dtd">
<svg version="1.1" xmlns="http://www.w3.org/2000/svg" xmlns:xlink="http://www.w3.org/1999/xlink" x="0px" y="0px" viewBox="0 0 256 256" enable-background="new 0 0 256 256" xml:space="preserve">
<metadata> Svg Vector Icons : http://www.onlinewebfonts.com/icon </metadata>
<g><g><path fill="#000000" d="M128,246c-15.9,0-31.4-3.1-45.9-9.3c-14.1-5.9-26.7-14.4-37.5-25.3c-10.8-10.8-19.3-23.5-25.3-37.5c-6.2-14.6-9.3-30-9.3-45.9s3.1-31.4,9.3-45.9C25.2,68,33.7,55.4,44.6,44.6C55.4,33.7,68,25.2,82.1,19.3c14.6-6.2,30-9.3,45.9-9.3s31.4,3.1,45.9,9.3c14.1,5.9,26.7,14.4,37.5,25.3c10.8,10.8,19.3,23.5,25.3,37.5c6.2,14.6,9.3,30,9.3,45.9c0,8-0.8,15.9-2.4,23.6l-14-2.8c1.4-6.8,2.1-13.8,2.1-20.8c0-57.2-46.6-103.7-103.7-103.7C70.8,24.3,24.3,70.8,24.3,128c0,57.2,46.5,103.7,103.7,103.7c36.3,0,69.3-18.4,88.4-49.4l12.1,7.5c-10.4,16.8-24.9,30.9-42.1,40.7C168.7,240.7,148.5,246,128,246z"/><path fill="#000000" d="M49.7,126c0,8.4,6.8,15.1,15.1,15.1c8.4,0,15.1-6.8,15.1-15.1c0-8.4-6.8-15.1-15.1-15.1C56.4,110.9,49.7,117.7,49.7,126L49.7,126z"/><path fill="#000000" d="M113,126c0,8.4,6.8,15.1,15.1,15.1c8.4,0,15.1-6.8,15.1-15.1l0,0c0-8.4-6.8-15.1-15.1-15.1C119.8,110.9,113,117.7,113,126L113,126L113,126z"/><path fill="#000000" d="M175.3,126c0,8.4,6.8,15.1,15.1,15.1c8.4,0,15.1-6.8,15.1-15.1c0-8.4-6.8-15.1-15.1-15.1C182.1,110.9,175.3,117.7,175.3,126L175.3,126z"/></g></g>
</svg>